<svg width="120" height="36" viewBox="0 0 120 36" fill="none" xmlns="http://www.w3.org/2000/svg">
<path fill-rule="evenodd" clip-rule="evenodd" d="M4.36213 13.1379L13.8736 3.62642C16.1708 1.32916 19.8792 1.27767 22.2394 3.51026L32.0184 12.7607C34.4731 15.0827 34.5272 18.9728 32.1379 21.3621L22.6264 30.8736C20.3292 33.1708 16.6208 33.2223 14.2606 30.9897L4.48157 21.7393C2.02686 19.4173 1.97284 15.5272 4.36213 13.1379ZM10.723 17.723C10.3263 17.3263 10.3335 16.681 10.7389 16.2932L21.3522 6.14135C21.4333 6.0638 21.4347 5.93474 21.3554 5.8554L21.2326 5.73258C19.7084 4.20842 17.2507 4.16605 15.6749 5.63678L6.52679 14.175C4.87229 15.7192 4.82733 18.3273 6.42764 19.9276L15.6716 29.1716C17.2337 30.7337 19.7663 30.7337 21.3284 29.1716L30.1716 20.3284C31.7337 18.7663 31.7337 16.2337 30.1716 14.6716L24.1414 8.64142C24.0633 8.56332 23.9367 8.56332 23.8586 8.64142L18 14.5L17.1707 13.6707C17.1077 13.6077 17 13.6523 17 13.7414V21.0414C17 21.216 17.2081 21.3067 17.3361 21.1879L24 15L25.0858 16.0858C25.8668 16.8668 25.8668 18.1332 25.0858 18.9142L19.2071 24.7929C18.8166 25.1834 18.1834 25.1834 17.7929 24.7929L10.723 17.723Z" fill="url(#paint0_linear_208_6726)"/>
<mask id="mask0_208_6726" style="mask-type:alpha" maskUnits="userSpaceOnUse" x="2" y="1" width="32" height="32">
<path fill-rule="evenodd" clip-rule="evenodd" d="M4.36213 13.1379L13.8736 3.62642C16.1708 1.32916 19.8792 1.27767 22.2394 3.51026L32.0184 12.7607C34.4731 15.0827 34.5272 18.9728 32.1379 21.3621L22.6264 30.8736C20.3292 33.1708 16.6208 33.2223 14.2606 30.9897L4.48157 21.7393C2.02686 19.4173 1.97284 15.5272 4.36213 13.1379ZM10.723 17.723C10.3263 17.3263 10.3335 16.681 10.7389 16.2932L21.3522 6.14135C21.4333 6.0638 21.4347 5.93474 21.3554 5.8554L21.2326 5.73258C19.7084 4.20842 17.2507 4.16605 15.6749 5.63678L6.52679 14.175C4.87229 15.7192 4.82733 18.3273 6.42764 19.9276L15.6716 29.1716C17.2337 30.7337 19.7663 30.7337 21.3284 29.1716L30.1716 20.3284C31.7337 18.7663 31.7337 16.2337 30.1716 14.6716L24.1414 8.64142C24.0633 8.56332 23.9367 8.56332 23.8586 8.64142L18 14.5L17.1707 13.6707C17.1077 13.6077 17 13.6523 17 13.7414V21.0414C17 21.216 17.2081 21.3067 17.3361 21.1879L24 15L25.0858 16.0858C25.8668 16.8668 25.8668 18.1332 25.0858 18.9142L19.2071 24.7929C18.8166 25.1834 18.1834 25.1834 17.7929 24.7929L10.723 17.723Z" fill="url(#paint1_linear_208_6726)"/>
</mask>
<g mask="url(#mask0_208_6726)">
<g filter="url(#filter0_f_208_6726)">
<circle cx="2" cy="25" r="16" fill="url(#paint2_linear_208_6726)"/>
</g>
<g filter="url(#filter1_f_208_6726)">
<circle cx="37" cy="19" r="16" fill="url(#paint3_linear_208_6726)" fill-opacity="0.7"/>
</g>
<g filter="url(#filter2_f_208_6726)">
<ellipse cx="15.5" cy="13" rx="6.5" ry="5" fill="#FD04C3"/>
</g>
</g>
<path d="M95 27C94.7239 27 94.5 26.7761 94.5 26.5V18.5C94.5 16.2909 96.2909 14.5 98.5 14.5H108.5C110.709 14.5 112.5 16.2909 112.5 18.5V26.5C112.5 26.7761 112.276 27 112 27H110C109.724 27 109.5 26.7761 109.5 26.5V18.5C109.5 17.9477 109.052 17.5 108.5 17.5H106C105.448 17.5 105 17.9477 105 18.5V26.5C105 26.7761 104.776 27 104.5 27H102.5C102.224 27 102 26.7761 102 26.5V18.5C102 17.9477 101.552 17.5 101 17.5H98.5C97.9477 17.5 97.5 17.9477 97.5 18.5V26.5C97.5 26.7761 97.2761 27 97 27H95Z" fill="#F0018B"/>
<path d="M65.5 26.5C65.5 26.7761 65.7239 27 66 27H68C68.2761 27 68.5 26.7761 68.5 26.5V18C68.5 17.7239 68.7239 17.5 69 17.5H76C76.2761 17.5 76.5 17.2761 76.5 17V15C76.5 14.7239 76.2761 14.5 76 14.5H69.5C67.2909 14.5 65.5 16.2909 65.5 18.5V26.5Z" fill="#F0018B"/>
<path d="M62.5 13C62.5 13.2761 62.2761 13.5 62 13.5H50C49.7239 13.5 49.5 13.7239 49.5 14V23.5C49.5 23.7761 49.7239 24 50 24H59.5C59.7761 24 60 23.7761 60 23.5V20.5C60 20.2239 59.7761 20 59.5 20H54.0403C53.6211 20 53.388 19.515 53.6499 19.1877L54.8499 17.6877C54.9448 17.569 55.0884 17.5 55.2403 17.5H62C62.2761 17.5 62.5 17.7239 62.5 18V26.5C62.5 26.7761 62.2761 27 62 27H50.5C48.2909 27 46.5 25.2091 46.5 23V14.5C46.5 12.2909 48.2909 10.5 50.5 10.5H62C62.2761 10.5 62.5 10.7239 62.5 11V13Z" fill="#F0018B"/>
<path d="M41.5 14.5C41.2239 14.5 41 14.7239 41 15V26.5C41 26.7761 41.2239 27 41.5 27H43C43.2761 27 43.5 26.7761 43.5 26.5V15C43.5 14.7239 43.2761 14.5 43 14.5H41.5Z" fill="#F0018B"/>
<path d="M41 11.5C41 11.7761 41.2239 12 41.5 12H43C43.2761 12 43.5 11.7761 43.5 11.5V10C43.5 9.72386 43.2761 9.5 43 9.5H41.5C41.2239 9.5 41 9.72386 41 10V11.5Z" fill="#F0018B"/>
<path fill-rule="evenodd" clip-rule="evenodd" d="M91.5 18.5C91.5 16.2909 89.7091 14.5 87.5 14.5H80C79.7239 14.5 79.5 14.7239 79.5 15V17C79.5 17.2761 79.7239 17.5 80 17.5H88C88.2761 17.5 88.5 17.7239 88.5 18V19C88.5 19.2761 88.2761 19.5 88 19.5H81.75C79.6789 19.5 78 21.1789 78 23.25C78 25.3211 79.6789 27 81.75 27H87.5C89.7091 27 91.5 25.2091 91.5 23V18.5ZM88.5 23.5C88.5 24.0523 88.0523 24.5 87.5 24.5H81.5C80.9477 24.5 80.5 24.0523 80.5 23.5V22.5C80.5 21.9477 80.9477 21.5 81.5 21.5H87.5C88.0523 21.5 88.5 21.9477 88.5 22.5V23.5Z" fill="#F0018B"/>
<path d="M95 27C94.7239 27 94.5 26.7761 94.5 26.5V18.5C94.5 16.2909 96.2909 14.5 98.5 14.5H108.5C110.709 14.5 112.5 16.2909 112.5 18.5V26.5C112.5 26.7761 112.276 27 112 27H110C109.724 27 109.5 26.7761 109.5 26.5V18.5C109.5 17.9477 109.052 17.5 108.5 17.5H106C105.448 17.5 105 17.9477 105 18.5V26.5C105 26.7761 104.776 27 104.5 27H102.5C102.224 27 102 26.7761 102 26.5V18.5C102 17.9477 101.552 17.5 101 17.5H98.5C97.9477 17.5 97.5 17.9477 97.5 18.5V26.5C97.5 26.7761 97.2761 27 97 27H95Z" stroke="#F0018B"/>
<path d="M65.5 26.5C65.5 26.7761 65.7239 27 66 27H68C68.2761 27 68.5 26.7761 68.5 26.5V18C68.5 17.7239 68.7239 17.5 69 17.5H76C76.2761 17.5 76.5 17.2761 76.5 17V15C76.5 14.7239 76.2761 14.5 76 14.5H69.5C67.2909 14.5 65.5 16.2909 65.5 18.5V26.5Z" stroke="#F0018B"/>
<path d="M62.5 13C62.5 13.2761 62.2761 13.5 62 13.5H50C49.7239 13.5 49.5 13.7239 49.5 14V23.5C49.5 23.7761 49.7239 24 50 24H59.5C59.7761 24 60 23.7761 60 23.5V20.5C60 20.2239 59.7761 20 59.5 20H54.0403C53.6211 20 53.388 19.515 53.6499 19.1877L54.8499 17.6877C54.9448 17.569 55.0884 17.5 55.2403 17.5H62C62.2761 17.5 62.5 17.7239 62.5 18V26.5C62.5 26.7761 62.2761 27 62 27H50.5C48.2909 27 46.5 25.2091 46.5 23V14.5C46.5 12.2909 48.2909 10.5 50.5 10.5H62C62.2761 10.5 62.5 10.7239 62.5 11V13Z" stroke="#F0018B"/>
<path d="M41.5 14.5C41.2239 14.5 41 14.7239 41 15V26.5C41 26.7761 41.2239 27 41.5 27H43C43.2761 27 43.5 26.7761 43.5 26.5V15C43.5 14.7239 43.2761 14.5 43 14.5H41.5Z" stroke="#F0018B"/>
<path d="M41 11.5C41 11.7761 41.2239 12 41.5 12H43C43.2761 12 43.5 11.7761 43.5 11.5V10C43.5 9.72386 43.2761 9.5 43 9.5H41.5C41.2239 9.5 41 9.72386 41 10V11.5Z" stroke="#F0018B"/>
<path fill-rule="evenodd" clip-rule="evenodd" d="M91.5 18.5C91.5 16.2909 89.7091 14.5 87.5 14.5H80C79.7239 14.5 79.5 14.7239 79.5 15V17C79.5 17.2761 79.7239 17.5 80 17.5H88C88.2761 17.5 88.5 17.7239 88.5 18V19C88.5 19.2761 88.2761 19.5 88 19.5H81.75C79.6789 19.5 78 21.1789 78 23.25C78 25.3211 79.6789 27 81.75 27H87.5C89.7091 27 91.5 25.2091 91.5 23V18.5ZM88.5 23.5C88.5 24.0523 88.0523 24.5 87.5 24.5H81.5C80.9477 24.5 80.5 24.0523 80.5 23.5V22.5C80.5 21.9477 80.9477 21.5 81.5 21.5H87.5C88.0523 21.5 88.5 21.9477 88.5 22.5V23.5Z" stroke="#F0018B"/>
<defs>
<filter id="filter0_f_208_6726" x="-18" y="5" width="40" height="40" filterUnits="userSpaceOnUse" color-interpolation-filters="sRGB">
<feFlood flood-opacity="0" result="BackgroundImageFix"/>
<feBlend mode="normal" in="SourceGraphic" in2="BackgroundImageFix" result="shape"/>
<feGaussianBlur stdDeviation="2" result="effect1_foregroundBlur_208_6726"/>
</filter>
<filter id="filter1_f_208_6726" x="14" y="-4" width="46" height="46" filterUnits="userSpaceOnUse" color-interpolation-filters="sRGB">
<feFlood flood-opacity="0" result="BackgroundImageFix"/>
<feBlend mode="normal" in="SourceGraphic" in2="BackgroundImageFix" result="shape"/>
<feGaussianBlur stdDeviation="3.5" result="effect1_foregroundBlur_208_6726"/>
</filter>
<filter id="filter2_f_208_6726" x="3" y="2" width="25" height="22" filterUnits="userSpaceOnUse" color-interpolation-filters="sRGB">
<feFlood flood-opacity="0" result="BackgroundImageFix"/>
<feBlend mode="normal" in="SourceGraphic" in2="BackgroundImageFix" result="shape"/>
<feGaussianBlur stdDeviation="3" result="effect1_foregroundBlur_208_6726"/>
</filter>
<linearGradient id="paint0_linear_208_6726" x1="18.25" y1="-0.5" x2="17" y2="34.5" gradientUnits="userSpaceOnUse">
<stop stop-color="#E80076"/>
<stop offset="1" stop-color="#F46331"/>
</linearGradient>
<linearGradient id="paint1_linear_208_6726" x1="18.25" y1="-0.5" x2="17" y2="34.5" gradientUnits="userSpaceOnUse">
<stop stop-color="#E80076"/>
<stop offset="1" stop-color="#F46331"/>
</linearGradient>
<linearGradient id="paint2_linear_208_6726" x1="-4.37722e-07" y1="12" x2="7.5" y2="29.5" gradientUnits="userSpaceOnUse">
<stop stop-color="#FD9D3E"/>
<stop offset="1" stop-color="#FF651A"/>
</linearGradient>
<linearGradient id="paint3_linear_208_6726" x1="27.5" y1="1" x2="37" y2="27" gradientUnits="userSpaceOnUse">
<stop stop-color="#D90585"/>
<stop offset="0.426406" stop-color="#C100BE"/>
<stop offset="0.508446" stop-color="#4606E9"/>
<stop offset="0.705051" stop-color="#7F33FA"/>
<stop offset="1" stop-color="#8035F9"/>
</linearGradient>
</defs>
</svg>
